<?xml version="1.0" encoding="UTF-8"?>
<svg version="1.1" xmlns="http://www.w3.org/2000/svg" viewBox="0 0 666 375" width="400" height="400">
<g class="logo-group">
<path d="M0 0 C0 0.66 0 1.32 0 2 C0.556875 2.185625 1.11375 2.37125 1.6875 2.5625 C5.86297481 5.15806542 8.4287176 9.0664288 9.8125 13.75 C9.874375 14.8225 9.93625 15.895 10 17 C10.07347656 17.8146875 10.14695313 18.629375 10.22265625 19.46875 C10.66479664 27.54064631 8.74867522 33.78927877 3.3203125 39.88671875 C-0.92694154 43.78475412 -5.02085359 45.8704719 -10.875 46.125 C-11.57625 46.08375 -12.2775 46.0425 -13 46 C-13.433125 44.2984375 -13.433125 44.2984375 -13.875 42.5625 C-14.24625 41.386875 -14.6175 40.21125 -15 39 C-18.75784691 37.12107655 -22.90817233 37.47975334 -27 38 C-32.71632014 40.16608986 -36.87281206 43.52887973 -41 48 C-41.845625 48.598125 -42.69125 49.19625 -43.5625 49.8125 C-47.99818178 53.79324006 -49.93652111 59.49738962 -52 65 C-51.29875 64.071875 -50.5975 63.14375 -49.875 62.1875 C-46.19277176 57.82642521 -42.31351555 56.03654374 -36.6875 55.3125 C-35.12617508 55.19199506 -33.5634932 55.08801121 -32 55 C-31.24203125 54.93554688 -30.4840625 54.87109375 -29.703125 54.8046875 C-24.02384214 54.51093149 -19.69598695 55.71760096 -15 59 C-14.67 59.66 -14.34 60.32 -14 61 C-13.566875 59.948125 -13.13375 58.89625 -12.6875 57.8125 C-9.78163487 51.17052255 -7.5588847 48.22190827 -1 45 C4.7065818 42.86003183 10.46133831 43.83857105 16 46 C16 46.66 16 47.32 16 48 C16.5775 48.185625 17.155 48.37125 17.75 48.5625 C21.57268809 51.00477295 23.4615462 54.67387959 24.46386719 59.00390625 C25.2314242 65.02243994 24.46496807 70.06892003 23.0625 75.9375 C20.14122793 87.06902805 20.14122793 87.06902805 22 98 C22.66 98 23.32 98 24 98 C25.4203784 95.15924321 25.05798694 92.80794669 24.9921875 89.63671875 C24.97542969 88.35732422 24.95867187 87.07792969 24.94140625 85.75976562 C24.9105198 83.72542743 24.87509176 81.6915157 24.82861328 79.6574707 C24.78606734 77.69246946 24.76390398 75.72706057 24.7421875 73.76171875 C24.7201123 72.58569092 24.69803711 71.40966309 24.67529297 70.19799805 C25.0355386 66.6499849 25.95028363 64.87655855 28 62 C28.598125 61.13375 29.19625 60.2675 29.8125 59.375 C33.2763262 55.61427441 36.00131329 54.13537903 41.171875 53.78515625 C50.08798544 53.69599515 50.08798544 53.69599515 54 55 C54.0825 54.0925 54.165 53.185 54.25 52.25 C55.96908773 40.54607398 61.45406184 28.77455806 68 19 C68.66 19 69.32 19 70 19 C70.226875 18.38125 70.45375 17.7625 70.6875 17.125 C72.37929835 14.38589791 73.99244161 13.94975528 77 13 C77 12.34 77 11.68 77 11 C83.06641067 8.70824486 88.68089174 8.3062184 95 10 C101.09161166 13.47771568 103.47548091 19.33084466 105.33984375 25.8359375 C107.57050336 36.52726461 105.11746389 45.81257337 102 56 C102.99 55.34 103.98 54.68 105 54 C110.54702513 52.77965447 115.4556651 53.18280778 121 54 C121.433422 45.84524526 120.29370226 38.82316305 118 31 C115.98177083 31.09765625 113.96354167 31.1953125 111.9453125 31.29296875 C110.98238281 31.14794922 110.98238281 31.14794922 110 31 C107.44981529 27.17472293 107.66283524 25.16137486 108.19140625 20.7109375 C109.83162396 15.2118501 114.13789746 10.85506646 118.8984375 7.76953125 C124.27492778 5.80081641 131.50164511 6.11510964 136.875 8.0625 C142.92748251 11.81503916 147.04183747 17.08403871 149 24 C149.42866595 27.69577581 149.42525452 31.34546044 149.375 35.0625 C149.36629883 36.64925537 149.36629883 36.64925537 149.35742188 38.26806641 C149.24503973 45.24720545 148.58891226 51.98680501 147.5 58.875 C146.16701339 67.31336456 145.66758418 75.5809569 145.625 84.125 C145.61146484 85.24632324 145.59792969 86.36764648 145.58398438 87.52294922 C145.58978516 88.5698291 145.59558594 89.61670898 145.6015625 90.6953125 C145.60494629 91.62359863 145.60833008 92.55188477 145.61181641 93.50830078 C146.06547235 96.42025839 147.06927692 97.81619306 149 100 C149 98.02 149 96.04 149 94 C151.44666506 92.77666747 152.79229374 92.95453177 155.5 93.1875 C156.2940625 93.24292969 157.088125 93.29835938 157.90625 93.35546875 C160 94 160 94 161.28125 96.05078125 C161.5184375 96.69402344 161.755625 97.33726562 162 98 C162.66 98 163.32 98 164 98 C167.11260552 103.14256564 168.30609659 108.03111658 168 114 C165.87470428 121.43853501 161.5552216 128.77552386 155 133 C147.39728093 136.65051193 140.60612174 136.56434323 132.6875 133.875 C129.11438475 131.3821289 127.34780462 128.65981309 125 125 C123.8553125 126.175625 123.8553125 126.175625 122.6875 127.375 C118.37554535 131.58667663 115.52243439 132.54982978 109.70703125 133.03515625 C104.78736644 132.9712645 99.92524215 131.76659191 96.24609375 128.390625 C95.83488281 127.93171875 95.42367188 127.4728125 95 127 C94.13375 127.94875 93.2675 128.8975 92.375 129.875 C89.50528469 132.77204593 87.01880642 134.04314133 83 135 C86.32086771 137.77000825 86.32086771 137.77000825 90 140 C90 140.66 90 141.32 90 142 C90.66 142 91.32 142 92 142 C100.66031324 151.59999533 103.36106236 164.66313674 104.640625 177.11328125 C104.68628917 179.89106749 104.68628917 179.89106749 106 181 C106.44755772 184.11786005 106.81954893 187.23452977 107.16210938 190.36523438 C107.59317833 193.95046644 108.09514782 196.89963389 110 200 C110.18175781 198.96101562 110.36351562 197.92203125 110.55078125 196.8515625 C114.73493339 173.40228992 114.73493339 173.40228992 121 166 C121.66 166 122.32 166 123 166 C123.33 165.01 123.66 164.02 124 163 C126.64440639 162.1185312 128.28060752 161.83825182 131 161.8125 C131.680625 161.79832031 132.36125 161.78414062 133.0625 161.76953125 C135 162 135 162 138 164 C137.814375 164.9075 137.62875 165.815 137.4375 166.75 C137.03276424 169.75660854 137.17475269 171.1880462 138 174 C144.45892714 174.40368295 149.06108578 173.5915262 155 171 C154.31292969 170.81824219 153.62585938 170.63648438 152.91796875 170.44921875 C152.01691406 170.19785156 151.11585938 169.94648438 150.1875 169.6875 C149.29417969 169.44386719 148.40085937 169.20023438 147.48046875 168.94921875 C144.85840201 167.94581368 143.76991297 167.13505261 142 165 C141.45214844 164.38898438 140.90429688 163.77796875 140.33984375 163.1484375 C137.82696429 159.11903895 138.40918138 154.57386552 139 150 C141.32584686 145.07993933 144.32143608 142.68768565 149 140 C151.88211302 139.03929566 153.69850044 138.89418117 156.6875 138.9375 C157.49574219 138.94652344 158.30398438 138.95554688 159.13671875 138.96484375 C160.05904297 138.98224609 160.05904297 138.98224609 161 139 C161.08636719 138.41734375 161.17273438 137.8346875 161.26171875 137.234375 C163.41386942 124.67687199 167.91791608 114.60664977 178 106.625 C183.62822821 103.68740283 190.76043311 103.61030513 197 103 C196.60167969 102.56429687 196.20335937 102.12859375 195.79296875 101.6796875 C195.26316406 101.08414063 194.73335938 100.48859375 194.1875 99.875 C193.66542969 99.29492188 193.14335937 98.71484375 192.60546875 98.1171875 C188.37991368 92.54480101 187.50544345 88.03483439 187.625 81.25 C187.63370117 80.06108154 187.63370117 80.06108154 187.64257812 78.84814453 C187.77437769 72.88177367 188.66400015 67.53409489 191 62 C189.68 62.33 188.36 62.66 187 63 C187 63.66 187 64.32 187 65 C179.62663108 66.26303079 174.21153425 65.95885314 167.3125 62.75 C164.26410803 60.44310878 162.25888446 58.09789869 160 55 C160 54.01 160 53.02 160 52 C159.34 52 158.68 52 158 52 C157.91188086 48.66683723 157.85923803 45.33397953 157.8125 42 C157.77479492 40.59814453 157.77479492 40.59814453 157.73632812 39.16796875 C157.63190126 29.21260757 160.75178152 21.24265226 167.296875 13.61328125 C176.53071576 4.86654677 186.75255232 1.51251062 199.18823242 1.64819336 C208.05653606 1.95110552 214.53910467 4.92702593 221 11 C227.63073241 18.27434752 230.11838391 27.48099271 229.94140625 37.2265625 C228.9967662 45.07583961 226.2784123 52.18888476 223.33984375 59.46875 C221.52746941 64.24538674 220.86965566 68.22417419 220.9375 73.3125 C220.95103516 74.63701172 220.95103516 74.63701172 220.96484375 75.98828125 C220.97644531 76.65214844 220.98804688 77.31601563 221 78 C222.98 78 224.96 78 227 78 C229.49020477 73.17896357 229.28096694 68.54067213 229.375 63.25 C229.90518092 47.89211436 231.79365721 33.64260016 243.375 22.5625 C249.14347418 17.98575455 255.85840658 17.43320687 263 18 C269.20400595 19.95915977 274.59690915 23.2875839 278.17578125 28.81640625 C280.34692407 33.55083663 280.18000427 37.59248292 278.9296875 42.59375 C277.42602128 46.48559199 275.26216567 49.39983861 272 52 C269.125 52.9375 269.125 52.9375 267 53 C266.67 51.35 266.34 49.7 266 48 C263.17261357 50.55376839 261.4263403 52.16293727 261 56 C260.93318047 58.67278133 260.95541853 61.32511163 261 64 C261.3403125 63.54109375 261.680625 63.0821875 262.03125 62.609375 C262.75828125 61.68898437 262.75828125 61.68898437 263.5 60.75 C263.9640625 60.14671875 264.428125 59.5434375 264.90625 58.921875 C270.51354607 53.77487935 276.63246142 52.33348529 284.0625 52.0625 C284.82626953 52.00771484 285.59003906 51.95292969 286.37695312 51.89648438 C292.96215861 51.57539223 297.3072886 53.10286242 302.75 56.9375 C304.81873278 58.83383838 306.42810143 60.6835179 308 63 C308.66 61.02 309.32 59.04 310 57 C308.35 57 306.7 57 305 57 C304.59290509 53.67539155 304.39559974 51.06365781 306.08984375 48.08203125 C309.99739948 43.22090754 314.05906148 40.5159985 320.38671875 39.6875 C326.40733739 39.39246203 331.14939604 40.32309679 336 44 C341.07171181 48.79547478 342.67996553 53.18323717 342.9921875 60.09375 C342.99476563 60.7228125 342.99734375 61.351875 343 62 C343.33 61.13375 343.66 60.2675 344 59.375 C347.00807944 54.29886595 351.38841426 50.87052858 357 49 C361.94280921 48.60212681 366.48275056 48.39310022 371.125 50.25 C373 52 373 52 374 53.8125 C374 56 374 56 372.63671875 58.5234375 C370.58718425 62.876864 369.71537908 67.1083946 368.8125 71.8125 C368.63525391 72.66392578 368.45800781 73.51535156 368.27539062 74.39257812 C366.63759921 82.69535854 366.25540674 89.93775729 369 98 C369 96.35 369 94.7 369 93 C372.07194908 91.46402546 374.60244293 91.7734962 378 92 C381.4375 93.5 381.4375 93.5 384 95 C384 95.99 384 96.98 384 98 C384.66 98 385.32 98 386 98 C389.12038434 103.07062456 389.75014184 107.2016063 389 113 C386.659583 119.90423014 383.2164807 125.99382355 377 130 C370.84931158 132.74542223 364.44771863 134.58556697 357.86328125 132.23828125 C353.91815005 130.3933308 350.86599035 128.3436554 348 125 C347.13375 125.78375 346.2675 126.5675 345.375 127.375 C342.44943553 129.83386728 339.72463238 131.02450104 336 132 C336.54527344 132.20753906 337.09054687 132.41507813 337.65234375 132.62890625 C345.81815242 135.96502296 352.8725201 140.70320168 358 148 C358.53625 148.598125 359.0725 149.19625 359.625 149.8125 C363.35432386 155.74551523 363.72246903 163.18366174 363 170 C362.20711687 173.09361914 361.20030791 176.04209837 360 179 C359.34 179 358.68 179 358 179 C357.92652344 179.72574219 357.85304688 180.45148438 357.77734375 181.19921875 C356.79147218 184.75132888 355.20000667 186.26783357 352.5625 188.8125 C351.75941406 189.60269531 350.95632813 190.39289063 350.12890625 191.20703125 C348 193 348 193 346 193 C346 193.66 346 194.32 346 195 C344.68 195 343.36 195 342 195 C342 195.66 342 196.32 342 197 C340.5390625 198.2890625 340.5390625 198.2890625 338.625 199.625 C337.68527344 200.29402344 337.68527344 200.29402344 336.7265625 200.9765625 C335 202 335 202 333 202 C332.835 203.27875 332.67 204.5575 332.5 205.875 C332.4071875 206.59429687 332.314375 207.31359375 332.21875 208.0546875 C331.9627515 210.00498344 331.9627515 210.00498344 332 212 C333.65 211.67 335.3 211.34 337 211 C338.18721642 214.56164926 337.49581295 215.9160345 335.9453125 219.2265625 C333.22347281 224.33282374 330.28870925 226.71623919 325 229 C325.886875 229.391875 326.77375 229.78375 327.6875 230.1875 C332.2539611 232.68612966 335.12814414 235.69221622 338 240 C339.15926841 245.69973637 339.37098846 250.58391851 337 256 C333.04469075 260.68391885 328.83367974 264.62762028 322.546875 265.23828125 C316.05738919 265.41048828 312.18420926 265.02040718 307 261 C303.57586632 256.92805724 301.01805088 252.41526301 301 247 C302.55366802 240.21386381 304.9426385 235.16943284 310.8125 231.25 C312.19049683 230.46771142 313.58087051 229.70492707 315 229 C313.39125 228.4121875 313.39125 228.4121875 311.75 227.8125 C306.72426861 225.63400756 304.74435824 222.38604637 302.1875 217.625 C300.05587937 211.11794754 301.92061212 206.84815219 304.75 200.875 C308.37511361 193.95275926 312.58707378 190.17585894 319 186 C319 185.67 319 185.34 319 185 C318.52691406 185.48855469 318.05382812 185.97710937 317.56640625 186.48046875 C313.76029881 188.73400877 310.2766027 188.39866169 305.9375 188.3125 C305.12216797 188.31572266 304.30683594 188.31894531 303.46679688 188.32226562 C297.40116097 188.26744065 297.40116097 188.26744065 294 186 C294 185.34 294 184.68 294 184 C293.34 184 292.68 184 292 184 C290.74609375 182.390625 290.74609375 182.390625 289.4375 180.25 C289.00308594 179.55390625 288.56867188 178.8578125 288.12109375 178.140625 C285.01370051 172.20734453 285.06517464 165.23719001 286.89453125 158.90234375 C287.86777319 156.23710523 288.88840099 153.61027268 290 151 C290.66 151 291.32 151 292 151 C292.08378906 150.41734375 292.16757812 149.8346875 292.25390625 149.234375 C293.21726696 146.34933663 294.62979704 145.20299274 296.9375 143.25 C297.64777344 142.63640625 298.35804688 142.0228125 299.08984375 141.390625 C301 140 301 140 303 140 C303 139.34 303 138.68 303 138 C310.88133799 134.24176939 318.32999289 132.08375089 327 131 C325.80375 130.505 324.6075 130.01 323.375 129.5 C318.48830614 127.01333132 315.458446 123.90880501 313 119 C312.00151731 115.35649824 311.40021336 111.75372532 311 108 C310.73445313 108.67546875 310.46890625 109.3509375 310.1953125 110.046875 C309.84210938 110.93890625 309.48890625 111.8309375 309.125 112.75 C308.77695312 113.63171875 308.42890625 114.5134375 308.0703125 115.421875 C307.1353291 117.6740248 306.12219206 119.83649459 305 122 C304.34 122 303.68 122 303 122 C302.67 122.99 302.34 123.98 302 125 C301.34 125 300.68 125 300 125 C299.75765625 125.60199219 299.5153125 126.20398438 299.265625 126.82421875 C296.79726535 131.0676642 292.55378828 132.61812059 288 134 C279.47752477 134.66446417 271.7668727 133.4192328 265 128 C263.09282889 126.0838328 261.58863601 124.20359188 260 122 C258.515 127.94 258.515 127.94 257 134 C258.03125 134.350625 259.0625 134.70125 260.125 135.0625 C264.61083485 137.04100846 267.65710537 139.66014149 270 144 C271.88841098 151.55364392 271.15821488 158.09861157 267.375 164.9375 C266.92125 165.618125 266.4675 166.29875 266 167 C266.556875 167.14695313 267.11375 167.29390625 267.6875 167.4453125 C274.41501983 169.42265785 280.2470227 172.09154772 284.38671875 177.96875 C287.9680823 184.90528572 288.22509297 192.48209617 286.19921875 199.953125 C285.2734353 202.45524244 284.41732476 204.73891669 283 207 C282.01 207.33 281.02 207.66 280 208 C279.33820153 209.98045559 279.33820153 209.98045559 279 212 C278.67 212.33 278.34 212.66 278 213 C278.825 213.20625 279.65 213.4125 280.5 213.625 C286.6722082 216.04979608 291.50836147 219.24435375 294.5 225.3125 C297.38810936 233.02272053 296.4708662 239.32312875 293.20703125 246.7734375 C291.58283736 249.76952331 289.58626439 251.80167527 287 254 C286.443125 254.680625 285.88625 255.36125 285.3125 256.0625 C277.56232269 262.5558918 266.74693259 263.7454364 257 263 C246.5359571 261.37292343 238.39444609 256.66051643 232.0625 248.125 C226.40843084 239.28553977 225.24614356 230.30634023 224 220 C223.68238361 222.37441382 223.37014258 224.74928559 223.0625 227.125 C222.9682373 227.84333008 222.87397461 228.56166016 222.77685547 229.30175781 C222.02627295 235.24114991 221.69221726 241.12241625 221.5390625 247.109375 C220.88163364 250.63471815 219.76144853 251.78674255 217 254 C211.15125632 257.16148307 205.71359833 256.33316631 199.5625 254.5 C198.03859447 254.00944323 196.51661327 253.51265801 195 253 C195 252.34 195 251.68 195 251 C194.40316406 250.74863281 193.80632812 250.49726563 193.19140625 250.23828125 C190.71139162 248.83691826 189.58896394 247.4907417 187.9375 245.1875 C187.42832031 244.47980469 186.91914063 243.77210938 186.39453125 243.04296875 C184.82871513 240.74907006 183.36177163 238.42092734 182 236 C181.46375 237.175625 180.9275 238.35125 180.375 239.5625 C177.24676693 245.81896614 172.56929318 252.3822019 165.73828125 254.80078125 C159.04447497 256.21284022 153.22061973 256.44725009 147.140625 252.921875 C144.48436867 250.92335833 143.11598457 249.37280756 142.125 246.1875 C142.08375 245.465625 142.0425 244.74375 142 244 C141.34 244 140.68 244 140 244 C137.38615852 231.04748195 135.75044956 214.74865131 140 202 C138.35 202 136.7 202 135 202 C134.17617742 205.28893578 133.36810585 208.58155901 132.5625 211.875 C132.33240234 212.7928125 132.10230469 213.710625 131.86523438 214.65625 C129.50825488 224.35744098 128.84158721 233.6648257 128.9375 243.625 C128.94426758 244.98818359 128.94426758 244.98818359 128.95117188 246.37890625 C128.96278822 248.58601089 128.97911832 250.79296697 129 253 C120.60499162 255.76856659 113.52563807 256.84993001 105 254 C96.20240073 249.31979568 90.64022481 241.55489644 87.3125 232.375 C86.87260742 231.19901245 86.87260742 231.19901245 86.42382812 229.99926758 C80.03648928 212.48588463 80.03648928 212.48588463 82 205 C80.5459375 205.7425 80.5459375 205.7425 79.0625 206.5 C74.7942999 208.33419597 70.5906501 208.68503887 66 208 C65.01 207.34 64.02 206.68 63 206 C63 205.34 63 204.68 63 204 C62.34 204 61.68 204 61 204 C60.67 203.34 60.34 202.68 60 202 C58.69597566 216.45424567 58.24979389 229.72840832 65 243 C64.86657929 245.86854518 64.49682575 247.35412653 62.75 249.625 C56.95374742 254.17919846 52.35002475 255.49830676 45 255 C41.3125 253.625 41.3125 253.625 38 252 C37.195625 251.608125 36.39125 251.21625 35.5625 250.8125 C35.046875 250.544375 34.53125 250.27625 34 250 C32.6696875 251.175625 32.6696875 251.175625 31.3125 252.375 C26.8342891 256.05986818 23.06052032 257.48502899 17.125 257.31640625 C13.30962189 256.74830767 10.11947726 255.24458938 7 253 C5 250.25 5 250.25 4 248 C3.34 248.7425 2.68 249.485 2 250.25 C-2.41029019 254.59817343 -6.74816325 257 -13 257 C-19.24411814 255.74872289 -24.23077294 253.49506526 -28 248.25 C-28.66 247.1775 -29.32 246.105 -30 245 C-30.2475 245.969375 -30.495 246.93875 -30.75 247.9375 C-34.54062257 260.89312097 -42.1254569 273.03906094 -54 280 C-57.3046875 280.7109375 -57.3046875 280.7109375 -60 281 C-60 281.66 -60 282.32 -60 283 C-71.87892406 288.69198445 -90.47309157 289.33555412 -103 285 C-112.45676908 280.44403169 -123.02665593 275.28394937 -127 265 C-127 264.34 -127 263.68 -127 263 C-127.66 263 -128.32 263 -129 263 C-135.7640079 251.93162344 -134.94042657 237.61885716 -132.1796875 225.4453125 C-130.28845949 219.92192475 -126.99288628 216.1595873 -123 212 C-121.8553125 210.6078125 -121.8553125 210.6078125 -120.6875 209.1875 C-114.99550229 204.55447861 -107.82039369 201.00518484 -100.3359375 201.4375 C-94.51168203 202.8399963 -87.78170928 206.22903565 -84 211 C-84 211.99 -84 212.98 -84 214 C-83.34 214 -82.68 214 -82 214 C-79.81093627 217.53551166 -79.73129184 220.45138074 -79.75 224.5625 C-79.74226563 226.26599609 -79.74226563 226.26599609 -79.734375 228.00390625 C-80 231 -80 231 -82 234 C-85.34373475 233.44271087 -88.03312999 232.64826111 -91 231 C-93.45179712 232.83884784 -93.96567755 233.80264589 -94.5 236.875 C-93.83727068 241.01705826 -92.2037001 242.39233713 -89 245 C-85.62178348 246.12607217 -83.91353805 245.89106825 -80.4375 245.3125 C-79.46683594 245.16425781 -78.49617188 245.01601563 -77.49609375 244.86328125 C-74.87554252 244.24205034 -74.87554252 244.24205034 -73.73046875 242.05859375 C-73.48941406 241.37925781 -73.24835938 240.69992187 -73 240 C-72.62875 239.2575 -72.2575 238.515 -71.875 237.75 C-69.93979504 231.66792727 -70.52793285 227.44089731 -73.25 221.8125 C-77.81125466 213.47772826 -84.18376933 208.06475639 -91.5 202.1875 C-92.325 201.465625 -93.15 200.74375 -94 200 C-94 199.34 -94 198.68 -94 198 C-94.99 197.67 -95.98 197.34 -97 197 C-97 196.34 -97 195.68 -97 195 C-97.598125 194.73703125 -98.19625 194.4740625 -98.8125 194.203125 C-105.14389275 190.72085899 -110.24792453 182.48939838 -113 176 C-113.47365252 172.13756184 -113.41634105 168.26354571 -113.4375 164.375 C-113.47037109 163.33214844 -113.50324219 162.28929687 -113.53710938 161.21484375 C-113.58904892 153.65055741 -111.95968217 148.4348197 -108 142 C-107.34 142 -106.68 142 -106 142 C-106 141.34 -106 140.68 -106 140 C-106.4846875 140.27714844 -106.969375 140.55429688 -107.46875 140.83984375 C-114.61076542 144.69927901 -120.90800358 145.87849917 -129 144 C-136.06069817 141.64643394 -140.9412643 137.17031674 -145 131 C-152.03122661 116.81837344 -151.55165613 101.33847657 -147.80078125 86.24609375 C-146.56010621 81.2168208 -145.79633303 76.11526861 -145 71 C-145.556875 71.7425 -146.11375 72.485 -146.6875 73.25 C-150.68027673 77.99816692 -154.85360212 81.58787736 -161.1015625 82.40625 C-171.03097938 82.67044734 -176.96696406 80.60064454 -184.2734375 73.921875 C-186 72 -186 72 -186 70 C-186.66 70 -187.32 70 -188 70 C-193.69647998 57.80510839 -196.19117294 47.87605762 -191.5 34.9375 C-186.78878327 22.84197545 -179.0928746 14.4381888 -167.375 8.71875 C-157.44687892 4.67823561 -146.26291387 3.53905075 -136 7 C-124.71700651 11.94444196 -117.87362979 19.32733793 -112.875 30.4375 C-109.88001526 38.22933022 -108 47.65428965 -108 56 C-107.34 56 -106.68 56 -106 56 C-106.05220703 54.89591797 -106.05220703 54.89591797 -106.10546875 53.76953125 C-106.38278054 43.77310137 -106.38278054 43.77310137 -103 40 C-102.34 40 -101.68 40 -101 40 C-100.67 39.01 -100.34 38.02 -100 37 C-94.14889826 33.54253079 -88.76831573 32.40628809 -82 33 C-78.5625 35 -78.5625 35 -76 37 C-76.875 43.875 -76.875 43.875 -78 45 C-78.07179964 46.51928038 -78.08392007 48.04167482 -78.0625 49.5625 C-78.05347656 50.38878906 -78.04445313 51.21507812 -78.03515625 52.06640625 C-78.02355469 52.70449219 -78.01195312 53.34257813 -78 54 C-77.6596875 53.09121094 -77.319375 52.18242188 -76.96875 51.24609375 C-71.7670811 37.63877647 -65.81788782 24.93451455 -56 14 C-55.50242188 13.44441406 -55.00484375 12.88882813 -54.4921875 12.31640625 C-52.34846091 10.05073114 -51.01246101 9.00415367 -48 8 C-47.74476563 7.39414062 -47.48953125 6.78828125 -47.2265625 6.1640625 C-45.41714507 2.97165085 -42.57863837 1.88457872 -39.375 0.375 C-38.73908936 0.06941162 -38.10317871 -0.23617676 -37.44799805 -0.55102539 C-25.46379863 -6.17832209 -11.52800671 -7.68533781 0 0 Z M192 38 C191.34 39.65 190.68 41.3 190 43 C190.78375 43.12375 191.5675 43.2475 192.375 43.375 C195 44 195 44 197 46 C197.16681109 43.08347826 197.16681109 43.08347826 197 40 C196.34 39.34 195.68 38.68 195 38 C194.01 38 193.02 38 192 38 Z M87 41 C84.37124595 46.37180176 83.3916035 51.04492601 83 57 C86.24290174 52.1356474 88.55811184 46.95319301 88 41 C87.67 41 87.34 41 87 41 Z M-155 45 C-157.30671915 47.71549154 -157.30671915 47.71549154 -156.625 50.1875 C-156.41875 50.785625 -156.2125 51.38375 -156 52 C-155.01 52 -154.02 52 -153 52 C-152.67 50.68 -152.34 49.36 -152 48 C-150.02 48.66 -148.04 49.32 -146 50 C-145.67 51.65 -145.34 53.3 -145 55 C-144.34 55 -143.68 55 -143 55 C-144.12233295 50.34520466 -144.12233295 50.34520466 -146.1875 46.0625 C-149.14877244 44.32658167 -151.66600832 44.63629182 -155 45 Z M53 56 C54 58 54 58 54 58 Z M-143 57 C-143 59.31 -143 61.62 -143 64 C-142.67 64 -142.34 64 -142 64 C-142 61.69 -142 59.38 -142 57 C-142.33 57 -142.66 57 -143 57 Z M52 61 C53 64 53 64 53 64 Z M-11 64 C-10.34 65.65 -9.68 67.3 -9 69 C-8.34 69 -7.68 69 -7 69 C-7.33 67.35 -7.66 65.7 -8 64 C-8.99 64 -9.98 64 -11 64 Z M51 64 C52 66 52 66 52 66 Z M-54 66 C-53 68 -53 68 -53 68 Z M341 67 C337.14701155 76.12791311 337.71473873 85.30111692 338 95 C338.99 95.33 339.98 95.66 341 96 C345.11413085 87.33268086 343.19674414 76.27476711 342 67 C341.67 67 341.34 67 341 67 Z M-56 70 C-55 72 -55 72 -55 72 Z M50 72 C47.70850531 81.80023174 46.31230913 91.62461826 51 101 C51.66 100.67 52.32 100.34 53 100 C52.84152588 99.28884033 52.68305176 98.57768066 52.51977539 97.8449707 C52.00385198 95.02108366 51.79569313 92.34701008 51.68359375 89.48046875 C51.64169922 88.45888672 51.59980469 87.43730469 51.55664062 86.38476562 C51.51732422 85.32966797 51.47800781 84.27457031 51.4375 83.1875 C51.37272461 81.57584961 51.37272461 81.57584961 51.30664062 79.93164062 C51.20089017 77.28787918 51.09879767 74.6440289 51 72 C50.67 72 50.34 72 50 72 Z M115 76 C110.82056269 83.65906187 109.43833716 89.33986971 111 98 C111.66 98.99 112.32 99.98 113 101 C113.99 101 114.98 101 116 101 C119.98217721 95.19265824 119.63880747 88.83606953 119 82 C118.39549252 79.98034281 117.74543808 77.97199557 117 76 C116.34 76 115.68 76 115 76 Z M88 78 C87.236875 78.763125 86.47375 79.52625 85.6875 80.3125 C83.53643834 82.46356166 81.47604213 84.25759998 79 86 C80.16246472 91.90805601 81.5392669 97.48795785 84 103 C84.99 103.33 85.98 103.66 87 104 C86.97679687 103.04480469 86.95359375 102.08960938 86.9296875 101.10546875 C86.8185268 93.14159831 87.18265294 85.80485659 89 78 C88.67 78 88.34 78 88 78 Z M277 84 C277.52480001 90.28908482 277.52480001 90.28908482 280 96 C280.66 96 281.32 96 282 96 C282 96.66 282 97.32 282 98 C283.73575649 98.87436418 283.73575649 98.87436418 286 99 C289.73846478 96.66888582 289.73846478 96.66888582 291.64453125 92.85546875 C291.76183594 92.24316406 291.87914062 91.63085938 292 91 C291.41992188 90.91363281 290.83984375 90.82726562 290.2421875 90.73828125 C284.41168056 89.6895597 281.24345436 88.13464784 277 84 Z M312 84 C312 85.65 312 87.3 312 89 C312.33 89 312.66 89 313 89 C313 87.35 313 85.7 313 84 C312.67 84 312.34 84 312 84 Z M-38 87 C-37.64820471 94.58129143 -37.64820471 94.58129143 -34 101 C-31.16024942 102.41774107 -31.16024942 102.41774107 -28 102 C-25.77879886 100.19527407 -24.6233605 98.43504074 -23 96 C-23 95.34 -23 94.68 -23 94 C-23.66386719 93.91363281 -24.32773438 93.82726562 -25.01171875 93.73828125 C-31.02299359 92.78174263 -34.19591638 91.81850592 -38 87 Z M-4 89 C-3.67 90.32 -3.34 91.64 -3 93 C-2.67 91.68 -2.34 90.36 -2 89 C-2.66 89 -3.32 89 -4 89 Z M-104 99 C-106.01907178 104.87220079 -106.33458795 110.19037483 -106.3125 116.375 C-106.32861328 117.26960938 -106.34472656 118.16421875 -106.36132812 119.0859375 C-106.36580273 125.24299002 -105.30760555 130.29515904 -103 136 C-101.02 135.01 -99.04 134.02 -97 133 C-97 132.34 -97 131.68 -97 131 C-96.01 130.67 -95.02 130.34 -94 130 C-95.39703807 125.71971316 -96.80255985 121.4853737 -98.5 117.3125 C-100.76439702 111.42986011 -101.77929824 105.164111 -103 99 C-103.33 99 -103.66 99 -104 99 Z M-62 101 C-62.10999102 103.69477996 -62.09525615 106.30615613 -62 109 C-61.95746094 110.23105469 -61.91492188 111.46210938 -61.87109375 112.73046875 C-61.61773707 116.62701835 -61.17543876 120.25356409 -60 124 C-57.22466686 126.41002421 -54.58872158 127.34280613 -51 128 C-51 127.34 -51 126.68 -51 126 C-51.66 126 -52.32 126 -53 126 C-53.2475 125.195625 -53.495 124.39125 -53.75 123.5625 C-54.71247934 120.81943387 -55.75737041 118.36044947 -57 115.75 C-59.18372277 110.96699527 -60.17932746 106.17239667 -61 101 C-61.33 101 -61.66 101 -62 101 Z M229.1015625 103.05859375 C222.69555258 106.62534691 217.30725866 107.84718661 210 108 C210.29519531 108.53882813 210.59039062 109.07765625 210.89453125 109.6328125 C212.15917254 112.34084297 212.93324979 114.9830943 213.6875 117.875 C214.09548828 119.38707031 214.09548828 119.38707031 214.51171875 120.9296875 C215.03877168 124.2437963 214.72448553 126.74224626 214 130 C212.01432292 129.4140625 210.02864583 128.828125 208.04296875 128.2421875 C205.68854587 127.73906252 205.68854587 127.73906252 203 130 C202.33256123 132.41344667 202.33256123 132.41344667 203 135 C206.01275147 138.09883009 208.63515951 139.89607523 213 140 C219.44608892 138.20941975 223.5782688 134.7543603 227 129 C230.67160165 120.31137328 232.74907221 111.43830979 232 102 C230.78329318 101.91883073 230.78329318 101.91883073 229.1015625 103.05859375 Z M-5 107 C-5.32871094 108.14275391 -5.32871094 108.14275391 -5.6640625 109.30859375 C-8.7443589 119.33833935 -12.34989291 127.68012462 -21.85546875 132.98046875 C-28.35957036 135.08925201 -35.25336738 134.42264288 -42 134 C-41.4946875 134.84820312 -40.989375 135.69640625 -40.46875 136.5703125 C-35.70117783 145.00058321 -33.35542893 152.10746562 -35 162 C-36.07082135 164.7157852 -37.29183679 166.59789549 -39 169 C-39 169.99 -39 170.98 -39 172 C-38.60296875 171.53980469 -38.2059375 171.07960938 -37.796875 170.60546875 C-33.75069869 166.99029818 -27.6864038 166.17751619 -22.4375 165.625 C-17.12359991 166.20469819 -12.39524562 166.81593613 -8.31640625 170.53515625 C-2.65224686 178.60618224 -4.10063111 190.86312994 -5.46484375 200.171875 C-5.80294249 201.76118587 -6.15991147 203.34670338 -6.54296875 204.92578125 C-7.51283408 209.32747777 -7.85271811 213.44960343 -5.625 217.5 C-4.12364481 219.22609337 -4.12364481 219.22609337 -2 219 C-0.00152616 214.9038914 0.0933948 212.06429449 -0.375 207.5625 C-2.31116573 185.03686452 -2.31116573 185.03686452 2 177 C2.99756988 175.99757577 3.99719497 174.99718708 5 174 C5 173.34 5 172.68 5 172 C12.43304237 167.96880768 19.80294301 167.67789403 28 169 C29.09658936 172.28976808 28.79953138 173.71303767 28 177 C28.50789063 176.60167969 29.01578125 176.20335937 29.5390625 175.79296875 C40.98895342 166.98041225 40.98895342 166.98041225 49 168 C51.69139215 169.79426143 53.72234173 171.72234173 56 174 C56.680625 173.236875 57.36125 172.47375 58.0625 171.6875 C61.35898525 168.67156669 63.86306835 167.54120983 68 166 C67.67 165.34 67.34 164.68 67 164 C64.167832 163.66551741 64.167832 163.66551741 61 164 C58.62280307 165.87501931 58.62280307 165.87501931 57 168 C54.12269747 166.56134873 52.33959254 165.65088569 50.828125 162.75390625 C49.05623568 156.86153847 49.82661865 149.59506006 52.5625 144.0625 C57.51036846 137.84594732 63.35703537 135.50129662 71 134 C67.38813161 131.25498003 63.69604737 128.62987986 60 126 C58.62437146 127.28965176 57.29233607 128.62689293 56 130 C56 130.66 56 131.32 56 132 C50.36869912 134.37107405 43.5739088 135.4196014 37.7578125 133.109375 C36 132 36 132 35 130 C34.34 130 33.68 130 33 130 C32.01 128.02 32.01 128.02 31 126 C30.58492188 126.433125 30.16984375 126.86625 29.7421875 127.3125 C24.11931716 132.39425729 19.49256638 132.57324831 12.07421875 132.30859375 C6.7288916 131.77202343 4.72045016 130.14155516 1.42578125 126.16015625 C-2.28612387 120.53636575 -3.28338031 113.59290117 -4 107 C-4.33 107 -4.66 107 -5 107 Z M-76 158 C-77.41002006 161.47804948 -77.03397566 162.89986122 -75.8125 166.5 C-74.14414169 169.72165742 -72.38715285 172.28358469 -70 175 C-69.34 174.67 -68.68 174.34 -68 174 C-68.66 173.175 -69.32 172.35 -70 171.5 C-72.61234126 167.65507519 -72.31334134 164.54344936 -72 160 C-69.03 160.495 -69.03 160.495 -66 161 C-65.32041397 158.60280568 -65.32041397 158.60280568 -65 156 C-66.81772804 153.79015749 -66.81772804 153.79015749 -69.375 153.625 C-72.85749465 154.12249924 -73.89790747 155.22223487 -76 158 Z M318.125 161.1875 C316.72112836 163.02996899 316.72112836 163.02996899 317.3125 165.6875 C317.539375 166.450625 317.76625 167.21375 318 168 C319.98 168 321.96 168 324 168 C325.32854177 173.9180497 324.66464729 176.77729131 322 182 C325.63013639 180.78995454 325.87693578 179.96377988 327.625 176.6875 C328.05039062 175.90761719 328.47578125 175.12773437 328.9140625 174.32421875 C329.92443248 172.16173624 330.66087714 170.35932619 331 168 C329.44025604 164.10064011 328.53271727 162.35514485 325 160 C322.10836622 159.63854578 320.6069553 159.61559497 318.125 161.1875 Z M170 161 C169.505 161.763125 169.01 162.52625 168.5 163.3125 C165.23273154 166.82481359 162.5371256 167.56324356 158 169 C158 169.33 158 169.66 158 170 C159.258125 170.226875 160.51625 170.45375 161.8125 170.6875 C165.03641569 171.48352856 165.77243049 171.70415964 167.875 174.4375 C168.24625 175.283125 168.6175 176.12875 169 177 C169.66 177.99 170.32 178.98 171 180 C171.226875 179.319375 171.45375 178.63875 171.6875 177.9375 C173.35572357 174.20385676 175.55729608 171.27836579 178 168 C175.42215154 165.35247996 173.08351902 163.05567935 170 161 Z M243.953125 170.90625 C239.89700337 175.37747007 239.89700337 175.37747007 238 181 C238.99 180.34 239.98 179.68 241 179 C241 178.34 241 177.68 241 177 C241.66 177 242.32 177 243 177 C243 176.34 243 175.68 243 175 C244.05767578 174.58621094 244.05767578 174.58621094 245.13671875 174.1640625 C248.0659984 172.97316845 250.93753586 171.69124864 253.8125 170.375 C254.78832031 169.92898437 255.76414062 169.48296875 256.76953125 169.0234375 C257.87361328 168.51683594 257.87361328 168.51683594 259 168 C257.62514468 166.45833358 257.62514468 166.45833358 256 165 C251.40174392 165 247.21251115 167.87079115 243.953125 170.90625 Z M-42 173 C-42.33 173.66 -42.66 174.32 -43 175 C-42.34 175 -41.68 175 -41 175 C-41.33 174.34 -41.66 173.68 -42 173 Z M-68 175 C-66.69400265 177.94807082 -65.39849335 179.7889585 -62.91796875 181.83984375 C-62.01401367 182.5987793 -62.01401367 182.5987793 -61.09179688 183.37304688 C-60.46337891 183.88931641 -59.83496094 184.40558594 -59.1875 184.9375 C-54.93189217 188.47272281 -50.88300434 192.04790306 -47 196 C-45.68824014 197.02813611 -44.3630107 198.04084432 -43 199 C-43.48726562 197.95199219 -43.48726562 197.95199219 -43.984375 196.8828125 C-45.10463285 193.70300369 -45.26685091 191.23675707 -45.25 187.875 C-45.25515625 186.84117187 -45.2603125 185.80734375 -45.265625 184.7421875 C-45 182 -45 182 -43 179 C-43 177.68 -43 176.36 -43 175 C-43.61746094 175.22816406 -44.23492187 175.45632812 -44.87109375 175.69140625 C-53.32385307 178.56045546 -59.66210948 178.20688097 -68 175 Z M199 176 C199.31059556 179.66683691 199.62341621 183.33346159 199.9375 187 C200.02451172 188.02996094 200.11152344 189.05992187 200.20117188 190.12109375 C200.45576575 193.08192623 200.72414228 196.04107917 201 199 C201.07234863 199.825 201.14469727 200.65 201.21923828 201.5 C201.40634044 203.34223668 201.692089 205.17406626 202 207 C202.66 207.33 203.32 207.66 204 208 C204.09796875 207.29617188 204.1959375 206.59234375 204.296875 205.8671875 C205.80454259 195.91138258 208.25773872 186.35565319 212 177 C207.71 176.67 203.42 176.34 199 176 Z M170 181 C169.80664062 182.26714844 169.61328125 183.53429687 169.4140625 184.83984375 C169.15119623 186.53908642 168.88816664 188.23830383 168.625 189.9375 C168.49867188 190.76830078 168.37234375 191.59910156 168.2421875 192.45507812 C167.48086156 197.34659729 166.56798749 202.15268989 165.39868164 206.96386719 C164.48876651 211.61095363 164.49222855 216.47668566 166 221 C166.99 221 167.98 221 169 221 C169.474375 219.948125 169.94875 218.89625 170.4375 217.8125 C170.70433594 217.22082031 170.97117187 216.62914062 171.24609375 216.01953125 C175.34643853 205.03570611 172.48105956 192.27985541 171 181 C170.67 181 170.34 181 170 181 Z M26 183 C24.54603319 189.85441496 23.81875372 196.50834143 23.8125 203.5 C23.80025391 204.22058594 23.78800781 204.94117188 23.77539062 205.68359375 C23.76234049 210.49474183 24.47961022 214.43282121 26 219 C26.99 219 27.98 219 29 219 C33.97662994 211.53505508 32.6781678 199.96859084 31.25 191.4375 C30.39103545 187.60950582 29.25704213 185.38849756 26 183 Z M262 190 C258.60980925 193.55556591 256.44508041 195.95575532 256 201 C257.87880872 200.95231597 257.87880872 200.95231597 260 200 C262.93355173 196.33306034 264 194.76869466 264 190 C263.34 190 262.68 190 262 190 Z M63 194 C62.67 194.66 62.34 195.32 62 196 C62.99 196 63.98 196 65 196 C65 195.34 65 194.68 65 194 C64.34 194 63.68 194 63 194 Z M-34 197 C-34.33 198.32 -34.66 199.64 -35 201 C-36.98 201 -38.96 201 -41 201 C-40.4225 202.134375 -39.845 203.26875 -39.25 204.4375 C-37.3402479 208.24345987 -35.60600457 212.10581577 -33.9296875 216.01953125 C-32.94690908 218.24057463 -32.94690908 218.24057463 -31 221 C-30.61654489 217.33663426 -30.28865413 213.67205904 -30 210 C-29.93167969 209.1440625 -29.86335937 208.288125 -29.79296875 207.40625 C-29.54218218 202.54705635 -29.54218218 202.54705635 -32 198.4375 C-32.66 197.963125 -33.32 197.48875 -34 197 Z M258.8125 219.5 C257.46091797 219.63921875 257.46091797 219.63921875 256.08203125 219.78125 C255.39496094 219.8534375 254.70789063 219.925625 254 220 C252.63923098 222.95283869 252.63923098 222.95283869 254.125 225.5 C256.25407172 228.3387623 257.69428203 229.69308824 261 231 C264.26814404 230.30059064 264.26814404 230.30059064 267 229 C266.814375 227.72125 266.62875 226.4425 266.4375 225.125 C265.875 221.25 265.875 221.25 267 219 C264.22003893 219 261.57507433 219.21297929 258.8125 219.5 Z " fill="#a6ff00ff" transform="translate(230,49)"/>
</g>
</svg>
